HIERARCHY
ROOT Hips
{
	OFFSET 0.00000 0.00000 0.00000
	CHANNELS 6 Xposition Yposition Zposition Zrotation Yrotation Xrotation 
	JOINT LHipJoint
	{
		OFFSET 0 0 0
		CHANNELS 3 Zrotation Yrotation Xrotation
		JOINT LeftHip
		{
			OFFSET 1.37590 -1.78394 0.89329
			CHANNELS 3 Zrotation Yrotation Xrotation
			JOINT LeftKnee
			{
				OFFSET 2.47928 -6.81178 0.00000
				CHANNELS 3 Zrotation Yrotation Xrotation
				JOINT LeftAnkle
				{
					OFFSET 2.63345 -7.23535 0.00000
					CHANNELS 3 Zrotation Yrotation Xrotation
					JOINT LeftToe
					{
						OFFSET 0.23938 -0.65768 2.27012
						CHANNELS 3 Zrotation Yrotation Xrotation
						End Site
						{
							OFFSET 0.00000 -0.00000 1.18363
						}
					}
				}
			}
		}
	}
	JOINT RHipJoint
	{
		OFFSET 0 0 0
		CHANNELS 3 Zrotation Yrotation Xrotation
		JOINT RightHip
		{
			OFFSET -1.33617 -1.78394 0.89329
			CHANNELS 3 Zrotation Yrotation Xrotation
			JOINT RightKnee
			{
				OFFSET -2.56922 -7.05888 0.00000
				CHANNELS 3 Zrotation Yrotation Xrotation
				JOINT RightAnkle
				{
					OFFSET -2.56568 -7.04915 0.00000
					CHANNELS 3 Zrotation Yrotation Xrotation
					JOINT RightToe
					{
						OFFSET -0.27533 -0.75646 2.18105
						CHANNELS 3 Zrotation Yrotation Xrotation
						End Site
						{
							OFFSET -0.00000 -0.00000 1.15233
						}
					}
				}
			}
		}
	}
	JOINT lowerback
	{
		OFFSET 0 0 0
		CHANNELS 3 Zrotation Yrotation Xrotation
		JOINT Chest
		{
			OFFSET 0.06190 2.15152 -0.00935
			CHANNELS 3 Zrotation Yrotation Xrotation
			JOINT Chest2
			{
				OFFSET 0.06334 2.15332 0.00872
				CHANNELS 3 Zrotation Yrotation Xrotation
				JOINT lowerneck
				{
					OFFSET 0 0 0
					CHANNELS 3 Zrotation Yrotation Xrotation
					JOINT Neck
					{
						OFFSET -0.04202 1.66908 0.23524
						CHANNELS 3 Zrotation Yrotation Xrotation
						JOINT Head
						{
							OFFSET 0.07510 1.69357 -0.24440
							CHANNELS 3 Zrotation Yrotation Xrotation
							End Site
							{
								OFFSET 0.02556 1.71719 -0.11000
							}
						}
					}
				}
				JOINT LeftCollar
				{
					OFFSET 0 0 0
					CHANNELS 3 Zrotation Yrotation Xrotation
					JOINT LeftShoulder
					{
						OFFSET 3.67168 1.26306 -0.41342
CHANNELS 3 Zrotation Xrotation Yrotation
						JOINT LeftElbow
						{
OFFSET 0 -4.685100 -0.000000
CHANNELS 3 Zrotation Xrotation Yrotation
							JOINT LeftWrist
							{
OFFSET 0 -3.396260 -0.000000
CHANNELS 3 Zrotation Xrotation Yrotation
								JOINT lhand
								{
									OFFSET 0 0 0
CHANNELS 3 Zrotation Xrotation Yrotation
									JOINT LFingers
									{
OFFSET 0 -0.486080 -0.000000
CHANNELS 3 Zrotation Xrotation Yrotation
										End Site
										{
OFFSET 0 -0.391890 -0.000000
										}
									}
								}
								JOINT LThumb
								{
OFFSET 0 0.000000 0.000000
CHANNELS 3 Zrotation Xrotation Yrotation
									End Site
									{
OFFSET 0 -0.397870 0.397870
									}
								}
							}
						}
					}
				}
				JOINT RightCollar
				{
					OFFSET 0 0 0
					CHANNELS 3 Zrotation Yrotation Xrotation
					JOINT RightShoulder
					{
						OFFSET -3.04136 1.42992 -0.76390
CHANNELS 3 Zrotation Xrotation Yrotation
						JOINT RightElbow
						{
OFFSET 0 -5.555760 -0.000000
CHANNELS 3 Zrotation Xrotation Yrotation
							JOINT RightWrist
							{
OFFSET 0 -3.327740 -0.000000
CHANNELS 3 Zrotation Xrotation Yrotation
								JOINT rhand
								{
									OFFSET 0 0 0
CHANNELS 3 Zrotation Xrotation Yrotation
									JOINT RFingers
									{
OFFSET 0 -0.507630 -0.000000
CHANNELS 3 Zrotation Xrotation Yrotation
										End Site
										{
OFFSET 0 -0.409260 -0.000000
										}
									}
								}
								JOINT RThumb
								{
OFFSET 0 0.000000 0.000000
CHANNELS 3 Zrotation Xrotation Yrotation
									End Site
									{
OFFSET 0 -0.415510 0.415510
									}
								}
							}
						}
					}
				}
			}
		}
	}
}
MOTION
Frames: 8
Frame Time: 0.008333333333333333
-0.213097 18.101574 5.128353 -111.308135 -80.968029 117.566075 0.000000 0.000000 0.000000 -4.424241 -4.520348 -27.831009 5.767818 14.196336 44.036548 0.342003 3.483381 -12.886284 0.759182 -5.564507 -15.525885 0.000000 0.000000 0.000000 32.442249 7.018697 -4.475263 -0.555482 -4.774111 13.265324 -0.033399 -8.127829 -12.238317 -0.504519 -4.552731 12.637248 7.148802 -0.987557 -1.201474 5.807973 -1.560155 -1.157999 1.980789 -0.894329 -0.540425 -4.809343 -4.822557 -10.700129 3.923933 -7.832392 27.428644 1.186362 -3.918936 10.944685 0.000000 0.000000 0.000000 0.905608 -20.162433 -55.134039 40.035984 -48.086813 18.467367 10.305733 18.615676 -16.013392 0.000000 0.000000 0.000000 -7.125000 0.000000 0.000000 -16.250334 45.591856 0.240672 0.000000 0.000000 0.000000 -21.347501 -20.250389 37.832014 -33.666896 -43.834039 -13.882606 -6.039640 7.311449 19.720498 0.000000 0.000000 0.000000 7.125000 0.000000 0.000000 21.572101 48.553376 -1.964510
-0.303018 18.097404 5.131288 -111.941297 -80.880178 118.219558 0.000000 0.000000 0.000000 -4.250654 -4.687777 -28.000929 5.439932 13.860766 42.686448 0.345194 3.687057 -13.076771 0.767863 -5.595644 -15.615582 0.000000 0.000000 0.000000 32.505857 6.970836 -4.183277 -0.559228 -4.789919 13.310296 -0.051832 -8.048966 -12.475982 -0.478023 -4.433405 12.299423 7.201965 -0.927923 -1.190812 5.773953 -1.477884 -1.170997 1.916964 -0.853981 -0.560751 -4.787790 -4.811837 -10.758681 3.921342 -7.815488 27.433636 1.182482 -3.907302 10.956191 0.000000 0.000000 0.000000 1.278851 -20.333362 -54.648029 41.019908 -48.660522 19.202171 9.472376 18.086317 -15.591442 0.000000 0.000000 0.000000 -7.125000 0.000000 0.000000 -16.854579 45.083815 0.033674 0.000000 0.000000 0.000000 -21.966184 -20.552421 37.221985 -34.302360 -44.306481 -14.324149 -4.489658 6.258304 18.935876 0.000000 0.000000 0.000000 7.125000 0.000000 0.000000 22.622756 47.610152 -1.525887
-0.392630 18.092740 5.134346 -112.536162 -80.795230 118.836596 0.000000 0.000000 0.000000 -4.077623 -4.866695 -28.138482 5.106486 13.501477 41.278346 0.344124 3.897094 -13.211419 0.777038 -5.628140 -15.709170 0.000000 0.000000 0.000000 32.562361 6.921060 -3.906795 -0.564581 -4.812399 13.374294 -0.071253 -7.967076 -12.720504 -0.452638 -4.315808 11.966971 7.246542 -0.867672 -1.174220 5.740922 -1.394006 -1.183996 1.859007 -0.812769 -0.583919 -4.777850 -4.802662 -10.825202 3.931970 -7.802413 27.445793 1.184470 -3.896903 10.973318 0.000000 0.000000 0.000000 1.638752 -20.498670 -54.098582 41.988513 -49.203470 19.932219 8.465694 17.416062 -15.203404 0.000000 0.000000 0.000000 -7.125000 0.000000 0.000000 -17.618499 44.593625 -0.184010 0.000000 0.000000 0.000000 -22.566707 -20.858034 36.472976 -34.876733 -44.723269 -14.726715 -2.919231 5.167974 18.220127 0.000000 0.000000 0.000000 7.125000 0.000000 0.000000 23.705593 46.744387 -1.076144
-0.482174 18.087399 5.137337 -113.076260 -80.715556 119.398868 0.000000 0.000000 0.000000 -3.905539 -5.058190 -28.240403 4.769390 13.115346 39.808514 0.337171 4.116192 -13.268176 0.786011 -5.659824 -15.800459 0.000000 0.000000 0.000000 32.611564 6.865267 -3.643903 -0.571150 -4.840017 13.452829 -0.091215 -7.886742 -12.970232 -0.427929 -4.197671 11.633506 7.279489 -0.808368 -1.156479 5.709717 -1.311075 -1.196588 1.809298 -0.772030 -0.606749 -4.769330 -4.796867 -10.890844 3.944559 -7.794950 27.460723 1.186728 -3.889006 10.991865 0.000000 0.000000 0.000000 1.983711 -20.656676 -53.488284 42.936293 -49.713085 20.653138 7.298161 16.553584 -14.887711 0.000000 0.000000 0.000000 -7.125000 0.000000 0.000000 -18.539212 44.161041 -0.402369 0.000000 0.000000 0.000000 -23.142349 -21.167096 35.583467 -35.374975 -45.076839 -15.078639 -1.412629 4.046136 17.603904 0.000000 0.000000 0.000000 7.125000 0.000000 0.000000 24.756923 45.992481 -0.637355
-0.571710 18.081442 5.140407 -113.575696 -80.635691 119.926207 0.000000 0.000000 0.000000 -3.728819 -5.256574 -28.320164 4.431111 12.707984 38.292745 0.324777 4.344188 -13.254008 0.795089 -5.691623 -15.892241 0.000000 0.000000 0.000000 32.659898 6.810360 -3.393631 -0.578672 -4.871216 13.541551 -0.111424 -7.810269 -13.222095 -0.403485 -4.077347 11.294354 7.308799 -0.747865 -1.141980 5.679720 -1.226902 -1.210010 1.762785 -0.730648 -0.628300 -4.759277 -4.794644 -10.954432 3.956082 -7.793070 27.476984 1.187612 -3.883684 11.010686 0.000000 0.000000 0.000000 2.316797 -20.811920 -52.841462 43.857901 -50.193171 21.358672 6.061935 15.536684 -14.633492 0.000000 0.000000 0.000000 -7.125000 0.000000 0.000000 -19.532671 43.783815 -0.615221 0.000000 0.000000 0.000000 -23.693226 -21.478637 34.588615 -35.809351 -45.380619 -15.386914 -0.007155 2.912506 17.089248 0.000000 0.000000 0.000000 7.125000 0.000000 0.000000 25.751462 45.353848 -0.234113
-0.661307 18.074911 5.143604 -114.037581 -80.554972 120.421848 0.000000 0.000000 0.000000 -3.547143 -5.460148 -28.377232 4.092539 12.278814 36.730839 0.306814 4.580912 -13.165352 0.803874 -5.722166 -15.980457 0.000000 0.000000 0.000000 32.708380 6.756685 -3.154407 -0.586961 -4.905251 13.638457 -0.131844 -7.738107 -13.475869 -0.379314 -3.954852 10.949643 7.335856 -0.686247 -1.131126 5.651072 -1.141663 -1.224304 1.718812 -0.688706 -0.648431 -4.748988 -4.795316 -11.017149 3.967147 -7.795778 27.495868 1.187664 -3.880528 11.030537 0.000000 0.000000 0.000000 2.638428 -20.964603 -52.160553 44.752936 -50.644847 22.048109 4.777720 14.353106 -14.442337 0.000000 0.000000 0.000000 -7.125000 0.000000 0.000000 -20.581122 43.464851 -0.819051 0.000000 0.000000 0.000000 -24.217497 -21.792468 33.494174 -36.179539 -45.635922 -15.650797 1.247863 1.774595 16.683623 0.000000 0.000000 0.000000 7.125000 0.000000 0.000000 26.652472 44.838407 0.117265
-0.751072 18.067876 5.146968 -114.464232 -80.473694 120.886730 0.000000 0.000000 0.000000 -3.361496 -5.667356 -28.407510 3.754582 11.825708 35.119046 0.283035 4.825969 -12.995380 0.811596 -5.748851 -16.057377 0.000000 0.000000 0.000000 32.757086 6.703010 -2.923572 -0.595754 -4.941188 13.741067 -0.152489 -7.670362 -13.731936 -0.355535 -3.830680 10.600906 7.361011 -0.624237 -1.123404 5.624158 -1.056257 -1.239214 1.677523 -0.646653 -0.667164 -4.741494 -4.797610 -11.081376 3.979610 -7.801284 27.519953 1.188276 -3.878769 11.053017 0.000000 0.000000 0.000000 2.948706 -21.113931 -51.443963 45.622524 -51.069510 22.722111 3.458160 12.974289 -14.318853 0.000000 0.000000 0.000000 -7.125000 0.000000 0.000000 -21.674816 43.208861 -1.009515 0.000000 0.000000 0.000000 -24.712352 -22.108480 32.302533 -36.482782 -45.842289 -15.867869 2.278783 0.640376 16.397736 0.000000 0.000000 0.000000 7.125000 0.000000 0.000000 27.404158 44.461609 0.395659
-0.841204 18.060108 5.150479 -114.847544 -80.390801 121.313414 0.000000 0.000000 0.000000 -3.169459 -5.876475 -28.402603 3.420959 11.341823 33.447900 0.252644 5.078004 -12.725435 0.819980 -5.777813 -16.140981 0.000000 0.000000 0.000000 32.808362 6.654035 -2.699789 -0.605135 -4.979401 13.849921 -0.173133 -7.611139 -13.989326 -0.332123 -3.703055 10.242766 7.385579 -0.561493 -1.123835 5.598933 -0.971070 -1.253095 1.638291 -0.604673 -0.680020 -4.737013 -4.802181 -11.140387 3.994424 -7.810315 27.543231 1.189916 -3.878847 11.074615 0.000000 0.000000 0.000000 3.249655 -21.267005 -50.689543 46.454650 -51.459429 23.371725 2.169011 11.347486 -14.289392 0.000000 0.000000 0.000000 -7.125000 0.000000 0.000000 -22.765940 43.045645 -1.165013 0.000000 0.000000 0.000000 -25.165850 -22.431985 30.995934 -36.697218 -45.986514 -16.021916 2.978345 -0.492006 16.236724 0.000000 0.000000 0.000000 7.125000 0.000000 0.000000 27.923356 44.237451 0.573859
